<?xml version="1.0" standalone="no"?>
<!DOCTYPE svg PUBLIC "-//W3C//DTD SVG 20010904//EN"
 "http://www.w3.org/TR/2001/REC-SVG-20010904/DTD/svg10.dtd">
<svg version="1.0" xmlns="http://www.w3.org/2000/svg"
 width="16.000000pt" height="16.000000pt" viewBox="0 0 16.000000 16.000000"
 preserveAspectRatio="xMidYMid meet">
<metadata>
Created by potrace 1.11, written by Peter Selinger 2001-2013
</metadata>
<g transform="translate(0.000000,16.000000) scale(0.005333,-0.005333)"
fill="#000000" stroke="none">
<path d="M0 1500 l0 -1500 1500 0 1500 0 0 1500 0 1500 -1500 0 -1500 0 0
-1500z m1052 963 c114 -54 199 -167 227 -301 6 -29 11 -104 11 -165 0 -177
-34 -280 -122 -373 -29 -31 -80 -70 -113 -87 -56 -30 -67 -32 -170 -32 -100 0
-115 3 -165 27 -149 74 -226 213 -237 433 -9 183 37 331 131 429 79 80 154
107 288 102 71 -3 98 -9 150 -33z m1058 33 c0 -2 -169 -332 -376 -733 -557
-1078 -645 -1247 -653 -1256 -4 -4 -49 -6 -99 -5 l-91 3 295 570 c162 314 394
762 516 998 l221 427 94 0 c51 0 93 -2 93 -4z m162 -1028 c172 -79 258 -259
245 -508 -6 -124 -32 -211 -84 -288 -120 -176 -364 -225 -539 -106 -127 86
-184 222 -184 438 0 174 39 293 126 387 81 85 146 110 284 106 78 -2 105 -8
152 -29z"/>
<path d="M814 2321 c-90 -41 -125 -134 -126 -325 0 -144 17 -218 62 -270 58
-66 137 -83 217 -47 80 37 122 148 123 323 0 183 -43 281 -142 323 -49 20 -84
19 -134 -4z"/>
<path d="M2032 1319 c-24 -12 -55 -38 -68 -59 -51 -77 -70 -283 -38 -422 14
-62 23 -78 64 -119 39 -39 56 -49 95 -55 96 -14 181 49 211 157 21 77 21 289
0 362 -38 132 -153 190 -264 136z"/>
</g>
</svg>
